<?xml version="1.0" encoding="UTF-8" standalone="no"?>
<!-- Generator: IcoMoon.io -->

<svg
   xmlns:dc="http://purl.org/dc/elements/1.1/"
   xmlns:cc="http://creativecommons.org/ns#"
   xmlns:rdf="http://www.w3.org/1999/02/22-rdf-syntax-ns#"
   xmlns:svg="http://www.w3.org/2000/svg"
   xmlns="http://www.w3.org/2000/svg"
   xmlns:sodipodi="http://sodipodi.sourceforge.net/DTD/sodipodi-0.dtd"
   xmlns:inkscape="http://www.inkscape.org/namespaces/inkscape"
   width="1024"
   height="1024"
   viewBox="0 0 1024 1024"
   id="svg2"
   version="1.1"
   inkscape:version="0.91 r13725"
   sodipodi:docname="VectorBaseLogo.svg"
   style="fill:#000000">
  <metadata
     id="metadata73">
    <rdf:RDF>
      <cc:Work
         rdf:about="">
        <dc:format>image/svg+xml</dc:format>
        <dc:type
           rdf:resource="http://purl.org/dc/dcmitype/StillImage" />
        <dc:title></dc:title>
      </cc:Work>
    </rdf:RDF>
  </metadata>
  <defs
     id="defs71" />
  <sodipodi:namedview
     pagecolor="#be9c20"
     bordercolor="#666666"
     borderopacity="1"
     objecttolerance="10"
     gridtolerance="10"
     guidetolerance="10"
     inkscape:pageopacity="0"
     inkscape:pageshadow="2"
     inkscape:window-width="1920"
     inkscape:window-height="1137"
     id="namedview69"
     showgrid="false"
     inkscape:zoom="0.65186406"
     inkscape:cx="114.61741"
     inkscape:cy="587.06322"
     inkscape:window-x="-8"
     inkscape:window-y="-8"
     inkscape:window-maximized="1"
     inkscape:current-layer="svg2" />
  <g
     id="g4531">
    <rect
       y="0"
       x="0"
       height="1024"
       width="1024"
       id="rect3729"
       style="fill:#3498db;fill-opacity:1" />
    <ellipse
       ry="192.5248"
       rx="189.45668"
       cy="216.31627"
       cx="513.1438"
       id="path3727"
       style="fill:#ffffff" />
    <g
       transform="matrix(2.0569805,0,0,2.0569805,116.94762,-1083.4637)"
       id="g3723">
      <path
         d="m 320.09351,768.54237 -0.078,0 -17.634,0 -99.552,202.122 37.225,-186.122 -48,-47.23297 -48,47.23297 37.225,186.122 -99.550999,-202.122 -17.635,0 -0.077,0 c -63.9619998,0 -63.9619998,42.993 -63.9619998,96 l 0,160.00003 383.9999988,0 0,-160.00003 c 0,-53.007 0,-96 -63.961,-96 z"
         id="path67"
         inkscape:connector-curvature="0"
         sodipodi:nodetypes="scccccccccssccss" />
      <path
         inkscape:connector-curvature="0"
         d="m 190.96639,526.72495 c -59.36939,0 -107.497709,47.15659 -107.497709,105.32821 0,58.17121 48.127899,105.32822 107.497709,105.32822 59.36937,0 107.49769,-47.15701 107.49769,-105.32822 0,-58.17162 -48.12832,-105.32821 -107.49769,-105.32821 z m 40.31163,52.6641 c 7.42112,0 13.43721,8.84181 13.43721,19.74904 0,10.90723 -6.01609,19.74905 -13.43721,19.74905 -7.42113,0 -13.4372,-8.84182 -13.4372,-19.74905 0,-10.90723 6.01607,-19.74904 13.4372,-19.74904 z m -73.90467,11.53303 c 12.52307,0 21.41557,4.59412 21.41557,11.784 0,1.52191 0.80034,8.84469 -0.0357,10.20244 -3.11324,-5.05576 -11.50772,-8.67888 -21.37987,-8.67888 -9.87215,0 -18.26663,3.62312 -21.37987,8.67888 -0.83605,-1.35775 -0.0357,-8.68053 -0.0357,-10.20244 0,-7.18988 8.89249,-11.784 21.41555,-11.784 z m 31.14579,106.96122 c -25.03563,0 -47.00044,-13.22362 -59.39501,-33.11091 14.78304,11.3269 40.84367,13.53837 68.29632,8.22423 29.44597,-5.69964 52.30225,-18.83194 60.56277,-36.32876 -4.5464,34.55258 -33.91175,61.21544 -69.46408,61.21544 z"
         id="path3466" />
    </g>
  </g>
</svg>
